HIERARCHY
ROOT Hips
{
   OFFSET 0.00000 0.00000 0.00000
   CHANNELS 6 Xposition Yposition Zposition Zrotation Xrotation Yrotation
   JOINT RightUpLeg
   {
      OFFSET -11.629540 -11.267191 0.132148
      CHANNELS 3 Zrotation Xrotation Yrotation
      JOINT RightLeg
      {
         OFFSET 0.000000 -57.749504 1.784510
         CHANNELS 3 Zrotation Xrotation Yrotation
         JOINT RightFoot
         {
            OFFSET 0.329614 -54.720115 -1.898767
            CHANNELS 3 Zrotation Xrotation Yrotation
            JOINT RightToes
            {
               OFFSET 0.052000 -5.739617 11.048829
               CHANNELS 3 Zrotation Xrotation Yrotation
               End Site
               {
                  OFFSET -0.104000 -0.178682 12.713727
               }
            }
         }
      }
   }
   JOINT Spine
   {
      OFFSET 0.000000 15.457650 0.000000
      CHANNELS 3 Zrotation Xrotation Yrotation
      JOINT Spine1
      {
         OFFSET 0.000000 33.354620 0.165962
         CHANNELS 3 Zrotation Xrotation Yrotation
         JOINT HEad
         {
            OFFSET 0.000000 11.354408 0.014743
            CHANNELS 3 Zrotation Xrotation Yrotation
            End Site
            {
               OFFSET -0.377000 16.606459 3.268135
            }
         }
         JOINT LeftShoulder1
         {
            OFFSET 11.687000 -0.470928 -0.286000
            CHANNELS 3 Zrotation Xrotation Yrotation
            JOINT LeftArm
            {
               OFFSET 13.367510 -0.004394 0.418760
               CHANNELS 3 Zrotation Xrotation Yrotation
               JOINT LeftForeArm
               {
                  OFFSET 42.596969 0.128887 -1.851642
                  CHANNELS 3 Zrotation Xrotation Yrotation
                  JOINT LeftHand
                  {
                     OFFSET 35.833589 0.110971 1.328808
                     CHANNELS 3 Zrotation Xrotation Yrotation
                     End Site
                     {
                        OFFSET 21.767590 -0.780000 1.953783
                     }
                  }
               }
            }
         }
         JOINT RightShoulder
         {
            OFFSET -11.687000 -0.470928 -0.286000
            CHANNELS 3 Zrotation Xrotation Yrotation
            JOINT RightArm
            {
               OFFSET -13.367510 -0.004394 0.418760
               CHANNELS 3 Zrotation Xrotation Yrotation
               JOINT RightForeArm
               {
                  OFFSET -42.766227 0.128887 -1.851642
                  CHANNELS 3 Zrotation Xrotation Yrotation
                  JOINT RightHand
                  {
                     OFFSET -35.739729 0.110971 1.328808
                     CHANNELS 3 Zrotation Xrotation Yrotation
                     End Site
                     {
                        OFFSET -21.620562 -0.780000 1.953783
                     }
                  }
               }
            }
         }
      }
   }
   JOINT LeftUpLeg
   {
      OFFSET 11.629540 -11.267191 0.132148
      CHANNELS 3 Zrotation Xrotation Yrotation
      JOINT LeftLeg
      {
         OFFSET 0.000000 -57.749504 1.784510
         CHANNELS 3 Zrotation Xrotation Yrotation
         JOINT LeftFoot
         {
            OFFSET -0.329614 -54.720115 -1.898767
            CHANNELS 3 Zrotation Xrotation Yrotation
            JOINT LeftToes
            {
               OFFSET -0.052000 -5.739617 11.048829
               CHANNELS 3 Zrotation Xrotation Yrotation
               End Site
               {
                  OFFSET 0.104000 -0.061682 12.713727
               }
            }
         }
      }
   }
}
MOTION
Frames: 9
Frame Time: 0.016667
-958.736024 107.114867 353.788943 181.183827 -80.666433 167.870914 -44.760446 72.877893 75.323729 21.636487 32.863199 45.944739 -68.179358 64.387551 9.095121 2.375126 -13.446484 -41.716559 46.825260 61.563753 88.409122 23.066753 -7.653895 -116.248959 -1.592862 56.063866 49.250520 24.566261 35.555503 -32.681837 -145.407023 8.279334 188.920560 10.940755 117.278555 -57.704238 -80.100238 -42.179690 -85.347804 30.854010 304.482566 14.118144 48.468969 12.126937 391.902348 -31.236750 62.262857 83.310836 -16.150030 -18.714013 31.774590 -18.541906 85.465973 80.259702 21.049902 17.397648 1.443913 -58.401642 23.396043 23.743382 47.124221 -34.213883 -57.882855
-959.826417 106.470192 352.546725 192.806596 -81.461877 178.611223 -50.359722 70.938515 78.370192 20.362582 36.883489 52.553098 -68.415300 66.539710 10.222391 0.845245 -13.120985 -42.631688 53.207126 57.491820 84.857416 29.853439 -10.868277 -119.701579 -1.109631 53.777184 49.519455 35.256333 48.673789 -41.663730 210.207391 39.514260 173.768837 5.603878 130.489070 -59.158850 -86.183313 -40.998040 -90.534000 34.200328 309.179824 18.845540 44.091538 13.784322 395.674935 -34.319880 55.381418 86.571213 -18.382981 -21.471593 30.306461 -23.362445 83.593948 79.558843 19.225808 18.090734 4.961593 -55.752980 20.112901 23.945745 47.225444 -35.993379 -55.337588
-961.224122 105.753563 351.373820 190.064316 -81.940523 177.681019 -60.091799 72.463649 80.245447 15.195959 37.179534 61.637799 -77.596024 73.453623 14.035853 0.074135 -11.624500 -43.413427 53.839796 59.445028 84.528755 30.357295 -10.866923 -122.184230 -0.737175 49.543931 48.273335 46.742352 58.711603 -47.209130 211.738446 70.988171 168.090559 4.651165 146.422249 -59.622982 -89.427223 -40.866364 -93.892561 33.411308 314.227525 22.110994 42.738123 16.243216 402.613888 -40.187317 49.590541 87.605208 -20.768534 -21.996213 27.642138 -28.370478 83.048352 76.555622 18.115139 16.470402 10.252285 -52.474137 16.029288 23.595119 47.138899 -36.646058 -52.152166
-963.014588 105.226687 349.945712 184.530401 -79.516413 177.074758 -70.623678 73.861167 84.955614 11.874494 42.798177 77.402060 -71.503290 70.312843 14.067207 -3.155561 -14.231592 -44.046271 60.028750 62.389625 83.509485 29.319256 -14.967661 -124.617225 0.414917 47.333078 45.314832 52.886851 64.825564 -49.781339 219.229524 100.590204 169.944409 5.472743 158.018844 -57.998968 -92.239574 -50.804743 -82.079722 36.492956 311.140306 24.470835 38.735065 20.639966 402.300382 -47.072479 44.827921 88.232145 -22.892332 -23.015180 21.724660 -32.728265 86.089794 71.225745 19.434294 12.852905 16.858982 -48.089371 12.627630 23.819532 47.169775 -36.736627 -48.355171
-965.183854 104.472664 348.406825 177.077695 -77.534825 169.312685 -87.042811 71.546074 89.320146 0.822927 45.938217 93.652979 -72.818341 69.691781 13.109218 -4.800564 -15.088895 -44.526403 63.645670 66.769908 82.199004 28.709751 -16.520903 -126.574962 1.153668 46.210485 41.233610 61.049023 69.915913 -55.236221 219.951147 120.604789 170.896073 1.946962 171.320037 -57.583317 -95.849622 -43.362511 -93.846505 40.090154 307.321766 25.210773 39.187046 26.667722 400.795610 -54.827564 41.365364 88.255688 -24.704876 -22.504435 11.968376 -31.892831 85.884342 66.552708 19.409989 15.060173 23.901832 -43.370175 9.243851 23.041419 46.691638 -38.295293 -44.026665
-967.685914 103.431910 346.923251 167.610411 -75.093750 159.063208 -99.660923 67.745231 93.407953 -8.433173 46.560392 107.572809 -69.269490 66.056522 10.354944 -6.071981 -16.507713 -45.431755 63.571542 70.770950 83.655371 28.167451 -17.089097 -127.148110 1.521671 45.147991 37.750012 66.724740 74.793262 -59.214530 222.704561 139.751135 174.401804 1.245343 184.924927 -56.523616 -99.910955 -48.065394 -87.664679 43.701398 301.833709 27.395351 40.700643 32.243114 395.804572 -52.014414 36.696998 83.716952 -27.468495 -18.726441 4.785430 -31.704645 86.992513 60.972218 17.559231 16.084582 26.831609 -39.891785 9.401719 20.922256 47.002906 -37.258805 -41.021915
-970.408311 102.065743 345.337748 157.045187 -72.834938 147.926461 -105.546845 64.219112 96.066911 -11.239193 46.389849 115.609448 -66.555276 63.935570 7.595958 -6.046635 -16.231859 -46.261524 57.875505 77.110042 87.154156 26.670340 -15.524567 -125.620347 1.651159 44.344095 34.681566 73.702727 79.198728 -63.377797 224.921476 154.762033 177.517573 2.244828 200.672256 -54.487277 -101.977272 -47.455106 -92.131950 44.516547 298.854299 28.432933 43.984188 38.928895 390.180184 -59.703551 32.601873 84.043354 -30.132551 -18.000130 -1.195196 -33.590744 87.226058 55.238796 15.727335 17.526346 27.880668 -36.753388 8.356680 17.497099 47.559628 -36.023668 -38.542556
-973.317399 100.183009 343.574595 146.425459 -72.199621 134.102104 -104.647562 60.253859 97.735301 -9.094224 46.371712 116.129444 -64.265994 65.870993 5.545282 -3.942280 -12.936033 -48.468125 47.755341 81.814137 93.886510 23.425730 -10.482767 -122.559234 0.772377 44.135573 32.240866 78.720075 80.947912 -67.034946 226.437491 172.644711 178.292062 2.324091 213.153470 -53.143264 -104.091782 -55.116574 -73.388552 45.026287 295.743011 31.575398 47.317095 45.933435 385.674227 -66.813279 31.363453 83.548909 -31.642491 -18.974407 -4.103125 -34.785566 83.811161 49.356938 14.304535 17.694930 28.193059 -32.906875 8.172701 14.988517 48.606392 -34.074581 -36.357312
-976.462235 98.005846 341.605944 136.096492 -69.898073 121.314296 -106.246803 56.832600 101.697466 -3.517131 45.848191 111.347827 -61.505430 65.443895 3.755216 -3.457038 -10.427409 -48.787170 37.993829 85.585576 98.017982 22.021384 -6.814814 -120.057800 -1.126890 42.877882 30.510073 83.878896 83.214319 -71.765645 227.752672 185.709606 181.855207 3.460097 229.520557 -51.339394 -105.331564 -53.348425 -87.885157 48.873046 292.393869 32.758957 51.994173 51.586957 381.347739 -71.849465 30.042450 82.785718 -33.082165 -21.561276 -4.762927 -31.595659 79.252679 44.497255 13.614945 19.357939 27.513329 -28.958339 6.038045 12.398515 49.332329 -34.621365 -33.556665
